<svg xmlns="http://www.w3.org/2000/svg" viewBox="0 0 512 512" role="img" aria-label="Flor-de-lis de São José">
  <defs>
    <radialGradient id="verde" cx="50%" cy="40%" r="75%">
      <stop offset="0%" stop-color="#33503b"/>
      <stop offset="60%" stop-color="#203427"/>
      <stop offset="100%" stop-color="#13231b"/>
    </radialGradient>
    <linearGradient id="ouro" x1="0" y1="0" x2="0" y2="1">
      <stop offset="0%" stop-color="#f1dca2"/>
      <stop offset="48%" stop-color="#d8b366"/>
      <stop offset="100%" stop-color="#bd9248"/>
    </linearGradient>
  </defs>

  <rect width="512" height="512" fill="url(#verde)"/>

  <!-- estrelas tênues -->
  <g fill="#e6cd8a" opacity="0.8">
    <circle cx="110" cy="120" r="2.4"/>
    <circle cx="402" cy="104" r="2"/>
    <circle cx="430" cy="210" r="2.1"/>
    <circle cx="92" cy="240" r="1.7"/>
    <circle cx="408" cy="330" r="1.7"/>
  </g>

  <!-- anel do medalhão -->
  <circle cx="256" cy="256" r="234" fill="none" stroke="#e6cd8a" stroke-width="5" opacity="0.30"/>
  <circle cx="256" cy="256" r="222" fill="none" stroke="#e6cd8a" stroke-width="2" opacity="0.18"/>

  <!-- flor-de-lis (lírio de São José) -->
  <g transform="translate(256 262) scale(0.62) translate(-256 -256)" fill="url(#ouro)" stroke="#9c7a36" stroke-width="2.5" stroke-linejoin="round">
    <path d="M351 103.68c-5.88 0-11.72.48-17.48 1.4a80.2 80.2 0 0 0-3.47-5.75l-61.3-92.6a15 15 0 0 0-25.02 0l-61.3 92.6a80.27 80.27 0 0 0-3.5 5.82 110.7 110.7 0 0 0-17.93-1.47c-60.66 0-110 49.34-110 110 0 6.12.5 12.29 1.52 18.33a15 15 0 0 0 23.54 9.71 44.25 44.25 0 0 1 25.93-8.33 44.66 44.66 0 0 1 44.04 37.58 14.98 14.98 0 0 0-6.49 12.34v60.76a15 15 0 0 0 15 15h41.55c-4.71 34.34-24.58 49.36-26.21 50.54a14.7 14.7 0 0 0-6.6 11.02 14.92 14.92 0 0 0 4.64 12.16l77.66 75a14.96 14.96 0 0 0 20.84 0l77.65-75a15.05 15.05 0 0 0 4.61-12.46 14.85 14.85 0 0 0-6.56-10.72c-1.64-1.18-21.5-16.2-26.22-50.54h41.55a15 15 0 0 0 15-15v-60.76a14.98 14.98 0 0 0-6.48-12.34 44.66 44.66 0 0 1 44.03-37.58c9.37 0 18.34 2.88 25.94 8.33a15 15 0 0 0 23.53-9.7 111.05 111.05 0 0 0 1.53-18.34c0-60.66-49.34-110-110-110zm-143.55 12.2 48.79-73.7 48.8 73.7a49.4 49.4 0 0 1 5.99 42.13l-34.36 110.3h-40.85l-34.37-110.3a49.4 49.4 0 0 1 6-42.12zm-105.46 87.5c-7.07 0-14 .99-20.66 2.9 3.75-40.66 38.05-72.6 79.67-72.6 2.91 0 5.82.16 8.7.47a79.56 79.56 0 0 0 3.1 32.78l31.6 101.38h-28.46c-4.76-36.58-36.1-64.92-73.95-64.92zm210.01 218.68-56 54.09-56-54.09c10.2-11.75 23.05-32.23 26.31-62.99h59.37c3.27 30.76 16.12 51.24 26.32 62.99zm30.46-93h-172.92v-30.75h172.92zm67.55-125.67c-37.85 0-69.19 28.34-73.95 64.92h-27.97l31.58-101.38a79.54 79.54 0 0 0 3.1-32.83 80.97 80.97 0 0 1 8.23-.42c41.62 0 75.92 31.94 79.67 72.6a74.54 74.54 0 0 0-20.66-2.9z"/>
  </g>
</svg>
